<mxfile host="app.diagrams.net" modified="2020-07-23T06:19:09.149Z" agent="5.0 (Windows NT 10.0; Win64; x64) AppleWebKit/537.36 (KHTML, like Gecko) Chrome/84.0.4147.89 Safari/537.36" etag="K1TBnkh0YAlj7tY38YQ_" version="13.5.1" type="github">
  <diagram id="Px3w9YJ7GceMehT5-deO" name="Page-1">
    <mxGraphModel dx="1422" dy="713" grid="1" gridSize="10" guides="1" tooltips="1" connect="1" arrows="1" fold="1" page="1" pageScale="1" pageWidth="827" pageHeight="1169" math="0" shadow="0">
      <root>
        <mxCell id="0" />
        <mxCell id="1" parent="0" />
        <mxCell id="AWgvwgDcnEprWnFE1-CO-2" value="Material App" style="rounded=1;whiteSpace=wrap;html=1;" vertex="1" parent="1">
          <mxGeometry x="310" y="50" width="120" height="60" as="geometry" />
        </mxCell>
        <mxCell id="AWgvwgDcnEprWnFE1-CO-7" value="" style="edgeStyle=orthogonalEdgeStyle;rounded=0;orthogonalLoop=1;jettySize=auto;html=1;" edge="1" parent="1" source="AWgvwgDcnEprWnFE1-CO-3" target="AWgvwgDcnEprWnFE1-CO-6">
          <mxGeometry relative="1" as="geometry" />
        </mxCell>
        <mxCell id="AWgvwgDcnEprWnFE1-CO-9" value="" style="edgeStyle=orthogonalEdgeStyle;rounded=0;orthogonalLoop=1;jettySize=auto;html=1;" edge="1" parent="1" source="AWgvwgDcnEprWnFE1-CO-3" target="AWgvwgDcnEprWnFE1-CO-8">
          <mxGeometry relative="1" as="geometry" />
        </mxCell>
        <mxCell id="AWgvwgDcnEprWnFE1-CO-11" value="" style="edgeStyle=orthogonalEdgeStyle;rounded=0;orthogonalLoop=1;jettySize=auto;html=1;" edge="1" parent="1" source="AWgvwgDcnEprWnFE1-CO-3" target="AWgvwgDcnEprWnFE1-CO-10">
          <mxGeometry relative="1" as="geometry" />
        </mxCell>
        <mxCell id="AWgvwgDcnEprWnFE1-CO-3" value="Scaffold" style="rounded=1;whiteSpace=wrap;html=1;" vertex="1" parent="1">
          <mxGeometry x="310" y="180" width="120" height="60" as="geometry" />
        </mxCell>
        <mxCell id="AWgvwgDcnEprWnFE1-CO-5" value="" style="endArrow=none;html=1;entryX=0.5;entryY=1;entryDx=0;entryDy=0;exitX=0.5;exitY=0;exitDx=0;exitDy=0;" edge="1" parent="1" source="AWgvwgDcnEprWnFE1-CO-3" target="AWgvwgDcnEprWnFE1-CO-2">
          <mxGeometry width="50" height="50" relative="1" as="geometry">
            <mxPoint x="470" y="410" as="sourcePoint" />
            <mxPoint x="520" y="360" as="targetPoint" />
          </mxGeometry>
        </mxCell>
        <mxCell id="AWgvwgDcnEprWnFE1-CO-13" value="" style="edgeStyle=orthogonalEdgeStyle;rounded=0;orthogonalLoop=1;jettySize=auto;html=1;" edge="1" parent="1" source="AWgvwgDcnEprWnFE1-CO-6" target="AWgvwgDcnEprWnFE1-CO-12">
          <mxGeometry relative="1" as="geometry" />
        </mxCell>
        <mxCell id="AWgvwgDcnEprWnFE1-CO-6" value="Center" style="rounded=1;whiteSpace=wrap;html=1;" vertex="1" parent="1">
          <mxGeometry x="570" y="340" width="120" height="60" as="geometry" />
        </mxCell>
        <mxCell id="AWgvwgDcnEprWnFE1-CO-8" value="Color" style="rounded=1;whiteSpace=wrap;html=1;" vertex="1" parent="1">
          <mxGeometry x="110" y="180" width="120" height="60" as="geometry" />
        </mxCell>
        <mxCell id="AWgvwgDcnEprWnFE1-CO-17" value="" style="edgeStyle=orthogonalEdgeStyle;rounded=0;orthogonalLoop=1;jettySize=auto;html=1;" edge="1" parent="1" source="AWgvwgDcnEprWnFE1-CO-10" target="AWgvwgDcnEprWnFE1-CO-16">
          <mxGeometry relative="1" as="geometry" />
        </mxCell>
        <mxCell id="AWgvwgDcnEprWnFE1-CO-19" value="" style="edgeStyle=orthogonalEdgeStyle;rounded=0;orthogonalLoop=1;jettySize=auto;html=1;" edge="1" parent="1" source="AWgvwgDcnEprWnFE1-CO-10" target="AWgvwgDcnEprWnFE1-CO-18">
          <mxGeometry relative="1" as="geometry" />
        </mxCell>
        <mxCell id="AWgvwgDcnEprWnFE1-CO-10" value="AppBar" style="rounded=1;whiteSpace=wrap;html=1;" vertex="1" parent="1">
          <mxGeometry x="310" y="340" width="120" height="60" as="geometry" />
        </mxCell>
        <mxCell id="AWgvwgDcnEprWnFE1-CO-15" value="" style="edgeStyle=orthogonalEdgeStyle;rounded=0;orthogonalLoop=1;jettySize=auto;html=1;" edge="1" parent="1" source="AWgvwgDcnEprWnFE1-CO-12" target="AWgvwgDcnEprWnFE1-CO-14">
          <mxGeometry relative="1" as="geometry" />
        </mxCell>
        <mxCell id="AWgvwgDcnEprWnFE1-CO-12" value="Image" style="rounded=1;whiteSpace=wrap;html=1;" vertex="1" parent="1">
          <mxGeometry x="570" y="480" width="120" height="60" as="geometry" />
        </mxCell>
        <mxCell id="AWgvwgDcnEprWnFE1-CO-14" value="NetworkImage" style="rounded=1;whiteSpace=wrap;html=1;" vertex="1" parent="1">
          <mxGeometry x="570" y="620" width="120" height="60" as="geometry" />
        </mxCell>
        <mxCell id="AWgvwgDcnEprWnFE1-CO-16" value="Text" style="rounded=1;whiteSpace=wrap;html=1;" vertex="1" parent="1">
          <mxGeometry x="310" y="480" width="120" height="60" as="geometry" />
        </mxCell>
        <mxCell id="AWgvwgDcnEprWnFE1-CO-18" value="Color" style="rounded=1;whiteSpace=wrap;html=1;" vertex="1" parent="1">
          <mxGeometry x="130" y="480" width="120" height="60" as="geometry" />
        </mxCell>
      </root>
    </mxGraphModel>
  </diagram>
</mxfile>
